<svg width="211" height="67" viewBox="0 0 211 67" fill="none"
  xmlns="http://www.w3.org/2000/svg">
  <path d="M19.7394 11.5428L31.3935 21.8174L45.2809 13.7995L38.596 28.1675L50.2501 38.4421L34.4646 37.0474L27.7797 51.4154L24.7086 36.1854L8.92308 34.7907L22.8105 26.7728L19.7394 11.5428Z" fill="#6CACE4"/>
  <path d="M19.7394 11.5428L31.3935 21.8174L45.2809 13.7995L38.596 28.1675L50.2501 38.4421L34.4646 37.0474L27.7797 51.4154L24.7086 36.1854L8.92308 34.7907L22.8105 26.7728L19.7394 11.5428Z" stroke="#0A3161"/>
  <path d="M74.642 65.9802L77.762 59.6102L77.788 61.7162L70.222 46.3502H73.342L77.528 55.3462C77.84 55.9356 78.1173 56.5162 78.36 57.0882C78.6027 57.6429 78.776 58.1629 78.88 58.6482L78.334 58.7522C78.5247 58.2669 78.7413 57.7296 78.984 57.1402C79.2267 56.5509 79.4953 55.9182 79.79 55.2422L83.508 46.3502H86.654L80.206 60.0522L77.502 65.9802H74.642ZM95.0733 60.2602C93.7387 60.2602 92.5513 59.9569 91.5113 59.3502C90.4713 58.7262 89.648 57.8769 89.0413 56.8022C88.452 55.7276 88.1573 54.5056 88.1573 53.1362C88.1573 51.7669 88.4607 50.5536 89.0673 49.4962C89.6913 48.4216 90.5407 47.5809 91.6153 46.9742C92.69 46.3676 93.912 46.0642 95.2813 46.0642C96.1133 46.0642 96.876 46.1769 97.5693 46.4022C98.28 46.6102 98.8953 46.9049 99.4153 47.2862C99.9353 47.6676 100.351 48.0922 100.663 48.5602C100.975 49.0109 101.149 49.4876 101.183 49.9902L100.533 49.8862V46.3502H103.211V60.0002H100.533V56.5422L101.105 56.5162C101.036 56.9496 100.828 57.3916 100.481 57.8422C100.152 58.2756 99.7013 58.6742 99.1293 59.0382C98.5747 59.4022 97.9507 59.6969 97.2573 59.9222C96.564 60.1476 95.836 60.2602 95.0733 60.2602ZM95.7493 57.7902C96.7027 57.7902 97.5433 57.5909 98.2713 57.1922C99.0167 56.7936 99.5973 56.2476 100.013 55.5542C100.429 54.8436 100.637 54.0376 100.637 53.1362C100.637 52.2696 100.429 51.4896 100.013 50.7962C99.5973 50.1029 99.0167 49.5569 98.2713 49.1582C97.5433 48.7422 96.7027 48.5342 95.7493 48.5342C94.796 48.5342 93.9553 48.7422 93.2273 49.1582C92.4993 49.5569 91.9273 50.1029 91.5113 50.7962C91.0953 51.4896 90.8873 52.2696 90.8873 53.1362C90.8873 54.0376 91.0953 54.8436 91.5113 55.5542C91.9273 56.2476 92.4993 56.7936 93.2273 57.1922C93.9553 57.5909 94.796 57.7902 95.7493 57.7902ZM108.527 60.0002V46.3502H111.205V49.5742L110.529 49.7822C110.789 49.1582 111.196 48.5689 111.751 48.0142C112.305 47.4422 112.964 46.9742 113.727 46.6102C114.507 46.2462 115.33 46.0642 116.197 46.0642C117.393 46.0642 118.389 46.2982 119.187 46.7662C120.001 47.2169 120.608 47.8669 121.007 48.7162C121.405 49.5656 121.605 50.5882 121.605 51.7842V60.0002H118.927V52.0702C118.927 51.2902 118.779 50.6402 118.485 50.1202C118.207 49.5829 117.8 49.1842 117.263 48.9242C116.743 48.6469 116.127 48.5169 115.417 48.5342C114.81 48.5342 114.247 48.6382 113.727 48.8462C113.224 49.0542 112.782 49.3316 112.401 49.6782C112.019 50.0249 111.725 50.4149 111.517 50.8482C111.309 51.2642 111.205 51.6976 111.205 52.1482V60.0002H109.879C109.567 60.0002 109.298 60.0002 109.073 60.0002C108.847 60.0002 108.665 60.0002 108.527 60.0002ZM129.319 56.0482L129.371 53.1362L137.119 46.3502H140.785L129.319 56.0482ZM127.057 60.0002V40.7602H129.631V60.0002H127.057ZM137.509 60.0002L131.581 53.3702L133.427 51.6282L140.941 60.0002H137.509ZM150.411 60.2602C148.851 60.2602 147.464 59.9656 146.251 59.3762C145.038 58.7696 144.084 57.9462 143.391 56.9062C142.715 55.8662 142.377 54.6702 142.377 53.3182C142.377 52.2089 142.576 51.2122 142.975 50.3282C143.374 49.4442 143.92 48.6816 144.613 48.0402C145.324 47.3989 146.156 46.9049 147.109 46.5582C148.062 46.2116 149.085 46.0382 150.177 46.0382C151.165 46.0382 152.084 46.2029 152.933 46.5322C153.8 46.8616 154.554 47.3209 155.195 47.9102C155.836 48.4996 156.33 49.2016 156.677 50.0162C157.041 50.8136 157.214 51.6976 157.197 52.6682L157.171 53.9162H144.561L143.963 51.7842H154.857L154.467 52.1222V51.4982C154.398 50.9262 154.155 50.4149 153.739 49.9642C153.323 49.5136 152.803 49.1582 152.179 48.8982C151.555 48.6382 150.888 48.5082 150.177 48.5082C149.137 48.5082 148.227 48.6729 147.447 49.0022C146.684 49.3316 146.086 49.8429 145.653 50.5362C145.237 51.2122 145.029 52.0789 145.029 53.1362C145.029 54.0896 145.272 54.9129 145.757 55.6062C146.242 56.2996 146.918 56.8369 147.785 57.2182C148.652 57.5996 149.648 57.7902 150.775 57.7902C151.746 57.7902 152.586 57.6516 153.297 57.3742C154.008 57.0969 154.684 56.7156 155.325 56.2302L156.599 58.1802C156.148 58.5616 155.585 58.9169 154.909 59.2462C154.233 59.5582 153.505 59.8096 152.725 60.0002C151.962 60.1736 151.191 60.2602 150.411 60.2602ZM167.926 60.2602C166.366 60.2602 164.979 59.9656 163.766 59.3762C162.552 58.7696 161.599 57.9462 160.906 56.9062C160.23 55.8662 159.892 54.6702 159.892 53.3182C159.892 52.2089 160.091 51.2122 160.49 50.3282C160.888 49.4442 161.434 48.6816 162.128 48.0402C162.838 47.3989 163.67 46.9049 164.624 46.5582C165.577 46.2116 166.6 46.0382 167.692 46.0382C168.68 46.0382 169.598 46.2029 170.448 46.5322C171.314 46.8616 172.068 47.3209 172.71 47.9102C173.351 48.4996 173.845 49.2016 174.192 50.0162C174.556 50.8136 174.729 51.6976 174.712 52.6682L174.686 53.9162H162.076L161.478 51.7842H172.372L171.982 52.1222V51.4982C171.912 50.9262 171.67 50.4149 171.254 49.9642C170.838 49.5136 170.318 49.1582 169.694 48.8982C169.07 48.6382 168.402 48.5082 167.692 48.5082C166.652 48.5082 165.742 48.6729 164.962 49.0022C164.199 49.3316 163.601 49.8429 163.168 50.5362C162.752 51.2122 162.544 52.0789 162.544 53.1362C162.544 54.0896 162.786 54.9129 163.272 55.6062C163.757 56.2996 164.433 56.8369 165.3 57.2182C166.166 57.5996 167.163 57.7902 168.29 57.7902C169.26 57.7902 170.101 57.6516 170.812 57.3742C171.522 57.0969 172.198 56.7156 172.84 56.2302L174.114 58.1802C173.663 58.5616 173.1 58.9169 172.424 59.2462C171.748 59.5582 171.02 59.8096 170.24 60.0002C169.477 60.1736 168.706 60.2602 167.926 60.2602Z" fill="white"/>
  <path d="M76.906 38.2602C75.346 38.2602 73.9593 37.9656 72.746 37.3762C71.5327 36.7696 70.5793 35.9462 69.886 34.9062C69.21 33.8662 68.872 32.6702 68.872 31.3182C68.872 30.2089 69.0713 29.2122 69.47 28.3282C69.8687 27.4442 70.4147 26.6816 71.108 26.0402C71.8187 25.3989 72.6507 24.9049 73.604 24.5582C74.5573 24.2116 75.58 24.0382 76.672 24.0382C77.66 24.0382 78.5787 24.2029 79.428 24.5322C80.2947 24.8616 81.0487 25.3209 81.69 25.9102C82.3313 26.4996 82.8253 27.2016 83.172 28.0162C83.536 28.8136 83.7093 29.6976 83.692 30.6682L83.666 31.9162H71.056L70.458 29.7842H81.352L80.962 30.1222V29.4982C80.8927 28.9262 80.65 28.4149 80.234 27.9642C79.818 27.5136 79.298 27.1582 78.674 26.8982C78.05 26.6382 77.3827 26.5082 76.672 26.5082C75.632 26.5082 74.722 26.6729 73.942 27.0022C73.1793 27.3316 72.5813 27.8429 72.148 28.5362C71.732 29.2122 71.524 30.0789 71.524 31.1362C71.524 32.0896 71.7667 32.9129 72.252 33.6062C72.7373 34.2996 73.4133 34.8369 74.28 35.2182C75.1467 35.5996 76.1433 35.7902 77.27 35.7902C78.2407 35.7902 79.0813 35.6516 79.792 35.3742C80.5027 35.0969 81.1787 34.7156 81.82 34.2302L83.094 36.1802C82.6433 36.5616 82.08 36.9169 81.404 37.2462C80.728 37.5582 80 37.8096 79.22 38.0002C78.4573 38.1736 77.686 38.2602 76.906 38.2602ZM87.8425 38.0002V18.7602H90.5205V38.0002H87.8425Z" fill="white"/>
  <path fill-rule="evenodd" clip-rule="evenodd" d="M18.3027 19.0002H8V32.0989L19.5942 25.405L18.3027 19.0002ZM8 37.5463V65.0002H190V19.0002H45.9782L42.0742 27.3912L58.6705 42.0232L36.1906 40.037L26.6707 60.4984L22.2972 38.8095L8 37.5463Z" fill="#0A3161"/>
  <path d="M76.618 38.5C75.11 38.5 73.7753 38.1967 72.614 37.59C71.47 36.9833 70.5773 36.1427 69.936 35.068C69.312 33.9933 69 32.7713 69 31.402C69 30.3447 69.182 29.3913 69.546 28.542C69.91 27.6927 70.4127 26.956 71.054 26.332C71.7127 25.708 72.4753 25.2313 73.342 24.902C74.226 24.5727 75.1793 24.408 76.202 24.408C77.1727 24.408 78.0653 24.5553 78.88 24.85C79.712 25.1273 80.4313 25.5433 81.038 26.098C81.6447 26.6353 82.1127 27.294 82.442 28.074C82.7713 28.8367 82.9187 29.7033 82.884 30.674L82.858 31.454H69.312V30.882H82.572L82.286 31.22L82.312 30.57C82.312 29.4607 82.0347 28.4813 81.48 27.632C80.9427 26.7827 80.2147 26.1327 79.296 25.682C78.3947 25.214 77.3893 24.98 76.28 24.98C74.9973 24.98 73.8533 25.2487 72.848 25.786C71.8427 26.306 71.0453 27.0513 70.456 28.022C69.884 28.9927 69.5893 30.1193 69.572 31.402C69.5893 32.6673 69.9013 33.794 70.508 34.782C71.1147 35.7527 71.938 36.5153 72.978 37.07C74.0353 37.6247 75.2487 37.902 76.618 37.902C77.7793 37.902 78.7847 37.7287 79.634 37.382C80.5007 37.0353 81.272 36.5933 81.948 36.056L82.182 36.576C81.662 36.9747 81.1247 37.3213 80.57 37.616C80.0327 37.8933 79.4433 38.11 78.802 38.266C78.1607 38.422 77.4327 38.5 76.618 38.5Z" fill="white"/>
  <path d="M87.164 38.24V19H87.736V38.24H87.164Z" fill="white"/>
  <path d="M73.394 65.22L76.384 58.824L76.566 60.644L69 45.668H71.21L76.02 55.34C76.332 55.912 76.6007 56.458 76.826 56.978C77.0513 57.498 77.2333 57.992 77.372 58.46L76.722 58.304C76.8953 57.9053 77.0773 57.4807 77.268 57.03C77.4587 56.5793 77.658 56.1027 77.866 55.6L82.286 45.668H84.522L78.23 59.214L75.474 65.22H73.394Z" fill="white"/>
  <path d="M93.0648 59.5C91.6782 59.5 90.4475 59.1967 89.3728 58.59C88.3155 57.9833 87.4835 57.1513 86.8768 56.094C86.2875 55.0193 85.9928 53.7973 85.9928 52.428C85.9928 51.0587 86.3048 49.8453 86.9288 48.788C87.5528 47.7133 88.4022 46.8727 89.4768 46.266C90.5515 45.6593 91.7735 45.356 93.1428 45.356C93.9922 45.356 94.7722 45.4687 95.4828 45.694C96.2108 45.9193 96.8435 46.2313 97.3808 46.63C97.9355 47.0287 98.3862 47.4793 98.7328 47.982C99.0795 48.4673 99.2962 48.97 99.3828 49.49L98.7588 49.308L98.8368 45.668H100.761V59.24H98.8108V55.704L99.3308 55.418C99.2268 55.938 98.9928 56.4407 98.6288 56.926C98.2648 57.4113 97.7968 57.8533 97.2248 58.252C96.6528 58.6333 96.0115 58.9367 95.3008 59.162C94.5902 59.3873 93.8448 59.5 93.0648 59.5ZM93.4808 57.628C94.5208 57.628 95.4482 57.4113 96.2628 56.978C97.0948 56.5273 97.7448 55.912 98.2128 55.132C98.6808 54.3347 98.9148 53.4333 98.9148 52.428C98.9148 51.44 98.6808 50.556 98.2128 49.776C97.7448 48.996 97.0948 48.372 96.2628 47.904C95.4482 47.436 94.5208 47.202 93.4808 47.202C92.4062 47.202 91.4615 47.436 90.6468 47.904C89.8322 48.372 89.1908 48.996 88.7228 49.776C88.2548 50.556 88.0208 51.44 88.0208 52.428C88.0208 53.4333 88.2462 54.326 88.6968 55.106C89.1475 55.886 89.7802 56.5013 90.5948 56.952C91.4268 57.4027 92.3888 57.628 93.4808 57.628Z" fill="white"/>
  <path d="M106.111 59.24V45.668H108.035L108.113 48.918L107.645 48.996C107.887 48.372 108.277 47.7913 108.815 47.254C109.369 46.6993 110.037 46.2487 110.817 45.902C111.614 45.538 112.446 45.356 113.313 45.356C114.474 45.356 115.445 45.59 116.225 46.058C117.022 46.5087 117.62 47.1587 118.019 48.008C118.417 48.8573 118.617 49.8887 118.617 51.102V59.24H116.641V51.31C116.641 50.4087 116.485 49.6547 116.173 49.048C115.861 48.4413 115.41 47.982 114.821 47.67C114.249 47.3407 113.573 47.1847 112.793 47.202C112.099 47.202 111.467 47.3233 110.895 47.566C110.323 47.8087 109.82 48.1293 109.387 48.528C108.971 48.9093 108.641 49.3513 108.399 49.854C108.173 50.3393 108.061 50.842 108.061 51.362V59.24H107.099C106.925 59.24 106.752 59.24 106.579 59.24C106.423 59.24 106.267 59.24 106.111 59.24Z" fill="white"/>
  <path d="M125.77 55.158L125.822 52.922L134.168 45.668H136.846L125.77 55.158ZM124.158 59.24V40H126.056V59.24H124.158ZM134.74 59.24L128.37 52.116L129.722 50.79L137.288 59.24H134.74Z" fill="white"/>
  <path d="M146.412 59.5C144.904 59.5 143.552 59.2053 142.356 58.616C141.178 58.0267 140.259 57.2033 139.6 56.146C138.942 55.0887 138.612 53.8753 138.612 52.506C138.612 51.414 138.803 50.4433 139.184 49.594C139.566 48.7273 140.094 47.9733 140.77 47.332C141.464 46.6907 142.27 46.1967 143.188 45.85C144.124 45.5033 145.121 45.33 146.178 45.33C147.201 45.33 148.137 45.4947 148.986 45.824C149.836 46.136 150.572 46.5867 151.196 47.176C151.82 47.7653 152.297 48.4587 152.626 49.256C152.956 50.0533 153.103 50.9373 153.068 51.908L153.042 52.922H140.198L139.912 51.284H151.56L151.092 51.622V50.998C151.058 50.374 150.832 49.776 150.416 49.204C150 48.6147 149.428 48.138 148.7 47.774C147.972 47.3927 147.132 47.202 146.178 47.202C145.104 47.202 144.142 47.3927 143.292 47.774C142.46 48.138 141.802 48.7013 141.316 49.464C140.848 50.2267 140.614 51.1973 140.614 52.376C140.614 53.4507 140.866 54.378 141.368 55.158C141.871 55.938 142.573 56.5447 143.474 56.978C144.393 57.4113 145.485 57.628 146.75 57.628C147.686 57.628 148.527 57.498 149.272 57.238C150.018 56.978 150.772 56.5707 151.534 56.016L152.47 57.472C152.02 57.836 151.482 58.174 150.858 58.486C150.234 58.798 149.55 59.0493 148.804 59.24C148.059 59.4133 147.262 59.5 146.412 59.5Z" fill="white"/>
  <path d="M163.317 59.5C161.809 59.5 160.457 59.2053 159.261 58.616C158.083 58.0267 157.164 57.2033 156.505 56.146C155.847 55.0887 155.517 53.8753 155.517 52.506C155.517 51.414 155.708 50.4433 156.089 49.594C156.471 48.7273 156.999 47.9733 157.675 47.332C158.369 46.6907 159.175 46.1967 160.093 45.85C161.029 45.5033 162.026 45.33 163.083 45.33C164.106 45.33 165.042 45.4947 165.891 45.824C166.741 46.136 167.477 46.5867 168.101 47.176C168.725 47.7653 169.202 48.4587 169.531 49.256C169.861 50.0533 170.008 50.9373 169.973 51.908L169.947 52.922H157.103L156.817 51.284H168.465L167.997 51.622V50.998C167.963 50.374 167.737 49.776 167.321 49.204C166.905 48.6147 166.333 48.138 165.605 47.774C164.877 47.3927 164.037 47.202 163.083 47.202C162.009 47.202 161.047 47.3927 160.197 47.774C159.365 48.138 158.707 48.7013 158.221 49.464C157.753 50.2267 157.519 51.1973 157.519 52.376C157.519 53.4507 157.771 54.378 158.273 55.158C158.776 55.938 159.478 56.5447 160.379 56.978C161.298 57.4113 162.39 57.628 163.655 57.628C164.591 57.628 165.432 57.498 166.177 57.238C166.923 56.978 167.677 56.5707 168.439 56.016L169.375 57.472C168.925 57.836 168.387 58.174 167.763 58.486C167.139 58.798 166.455 59.0493 165.709 59.24C164.964 59.4133 164.167 59.5 163.317 59.5Z" fill="white"/>
</svg>
