<svg width="124" height="67" viewBox="0 0 124 67" fill="none" xmlns="http://www.w3.org/2000/svg">
  <path
    d="M22.3653 12.0784L33.2383 11.9089C32.6313 12.8469 32.2863 13.9689 32.3051 15.1699C32.3554 18.3965 35.0118 20.9714 38.2384 20.9212C41.465 20.8709 44.0399 18.2144 43.9896 14.9878C43.9709 13.7868 43.5911 12.6761 42.9552 11.7575L53.6427 11.5909C53.863 12.607 53.9866 13.6596 54.0034 14.739C54.1407 23.5481 47.1108 30.8006 38.3017 30.9379C29.4926 31.0752 22.2401 24.0453 22.1028 15.2362C22.086 14.1568 22.1768 13.1008 22.3653 12.0784Z"
    fill="#022D49" />
  <path
    d="M44.473 46.0538C44.4731 49.2384 41.9167 51.8446 38.7211 51.8944C35.4945 51.9447 32.8381 49.3698 32.7878 46.1432C32.7691 44.9422 33.1141 43.8202 33.721 42.8821L22.848 43.0516C22.6595 44.074 22.5687 45.13 22.5856 46.2094C22.7229 55.0185 29.9753 62.0484 38.7845 61.9111C47.5936 61.7738 54.6235 54.5213 54.4862 45.7122C54.4693 44.6329 54.3457 43.5802 54.1254 42.5641L44.4217 42.7154L44.4738 46.0538L44.473 46.0538Z"
    fill="#022D49" />
  <path d="M43.9394 11.7421L53.9547 11.586L54.4865 45.7122L44.4712 45.8683L43.9394 11.7421Z" fill="#022D49" />
  <path d="M43.9394 11.7421L53.9547 11.586L54.4865 45.7122L44.4712 45.8683L43.9394 11.7421Z" fill="#022D49" />
  <path
    d="M19.3422 12.0784L30.2152 11.9089C29.6083 12.8469 29.2633 13.9689 29.282 15.1699C29.3323 18.3965 31.9887 20.9714 35.2153 20.9212C38.4419 20.8709 41.0168 18.2144 40.9665 14.9878C40.9478 13.7868 40.568 12.6761 39.9321 11.7575L50.6197 11.5909C50.8399 12.607 50.9636 13.6596 50.9804 14.739C51.1177 23.5481 44.0878 30.8006 35.2787 30.9379C26.4696 31.0752 19.2171 24.0453 19.0798 15.2362C19.063 14.1568 19.1537 13.1008 19.3422 12.0784Z"
    fill="#B31942" />
  <path
    d="M41.45 46.0538C41.45 49.2384 38.8937 51.8446 35.698 51.8944C32.4714 51.9447 29.815 49.3698 29.7647 46.1432C29.746 44.9422 30.091 43.8202 30.6979 42.8821L19.8249 43.0516C19.6365 44.074 19.5457 45.13 19.5625 46.2094C19.6998 55.0185 26.9523 62.0484 35.7614 61.9111C44.5705 61.7738 51.6004 54.5213 51.4631 45.7122C51.4463 44.6329 51.3226 43.5802 51.1024 42.5641L41.3987 42.7154L41.4507 46.0538L41.45 46.0538Z"
    fill="#B31942" />
  <path d="M40.9163 11.7421L50.9316 11.586L51.4635 45.7122L41.4482 45.8683L40.9163 11.7421Z" fill="#B31942" />
  <path d="M40.9163 11.7421L50.9316 11.586L51.4635 45.7122L41.4482 45.8683L40.9163 11.7421Z" fill="#B31942" />
  <path
    d="M16.319 12.0784L27.192 11.9089C26.5851 12.8469 26.2401 13.9689 26.2588 15.1699C26.3091 18.3965 28.9655 20.9714 32.1921 20.9212C35.4187 20.8709 37.9936 18.2144 37.9433 14.9878C37.9246 13.7868 37.5448 12.6761 36.9089 11.7575L47.5965 11.5909C47.8167 12.607 47.9404 13.6596 47.9572 14.739C48.0945 23.5481 41.0646 30.8006 32.2555 30.9379C23.4464 31.0752 16.1939 24.0453 16.0566 15.2362C16.0398 14.1568 16.1305 13.1008 16.319 12.0784Z"
    fill="#FFB81C" />
  <path
    d="M38.4268 46.0538C38.4268 49.2384 35.8705 51.8446 32.6748 51.8944C29.4482 51.9447 26.7918 49.3698 26.7415 46.1432C26.7228 44.9422 27.0678 43.8202 27.6747 42.8821L16.8017 43.0516C16.6133 44.074 16.5225 45.13 16.5393 46.2094C16.6766 55.0185 23.9291 62.0484 32.7382 61.9111C41.5473 61.7738 48.5772 54.5213 48.4399 45.7122C48.4231 44.6329 48.2994 43.5802 48.0792 42.5641L38.3755 42.7154L38.4275 46.0538L38.4268 46.0538Z"
    fill="#FFB81C" />
  <path d="M37.8931 11.7421L47.9084 11.586L48.4403 45.7122L38.425 45.8683L37.8931 11.7421Z" fill="#FFB81C" />
  <path d="M37.8931 11.7421L47.9084 11.586L48.4403 45.7122L38.425 45.8683L37.8931 11.7421Z" fill="#FFB81C" />
  <path
    d="M64.7705 49.556C64.9265 49.568 65.0825 49.58 65.2385 49.592C65.3945 49.616 65.5145 49.628 65.5985 49.628C65.7905 49.628 65.9585 49.562 66.1025 49.43C66.2465 49.298 66.4025 49.04 66.5705 48.656C66.7505 48.284 66.9785 47.732 67.2545 47L63.2765 37.604L64.9505 37.604L68.1185 45.398L70.9805 37.604L72.5465 37.604L67.9745 49.466C67.8665 49.742 67.7045 50 67.4885 50.24C67.2845 50.492 67.0205 50.69 66.6965 50.834C66.3725 50.978 65.9825 51.05 65.5265 51.05C65.4185 51.05 65.3045 51.044 65.1845 51.032C65.0765 51.02 64.9385 50.996 64.7705 50.96L64.7705 49.556ZM73.163 44.282C73.163 43.682 73.331 43.166 73.667 42.734C74.015 42.29 74.489 41.948 75.089 41.708C75.689 41.468 76.385 41.348 77.177 41.348C77.597 41.348 78.041 41.384 78.509 41.456C78.977 41.516 79.391 41.612 79.751 41.744L79.751 41.06C79.751 40.34 79.535 39.776 79.103 39.368C78.671 38.948 78.059 38.738 77.267 38.738C76.751 38.738 76.253 38.834 75.773 39.026C75.305 39.206 74.807 39.47 74.279 39.818L73.703 38.702C74.315 38.282 74.927 37.97 75.539 37.766C76.151 37.55 76.787 37.442 77.447 37.442C78.647 37.442 79.595 37.778 80.291 38.45C80.987 39.11 81.335 40.034 81.335 41.222L81.335 45.2C81.335 45.392 81.371 45.536 81.443 45.632C81.527 45.716 81.659 45.764 81.839 45.776L81.839 47C81.683 47.024 81.545 47.042 81.425 47.054C81.317 47.066 81.227 47.072 81.155 47.072C80.783 47.072 80.501 46.97 80.309 46.766C80.129 46.562 80.027 46.346 80.003 46.118L79.967 45.524C79.559 46.052 79.025 46.46 78.365 46.748C77.705 47.036 77.051 47.18 76.403 47.18C75.779 47.18 75.221 47.054 74.729 46.802C74.237 46.538 73.853 46.19 73.577 45.758C73.301 45.314 73.163 44.822 73.163 44.282ZM79.283 44.948C79.427 44.78 79.541 44.612 79.625 44.444C79.709 44.264 79.751 44.114 79.751 43.994L79.751 42.824C79.379 42.68 78.989 42.572 78.581 42.5C78.173 42.416 77.771 42.374 77.375 42.374C76.571 42.374 75.917 42.536 75.413 42.86C74.921 43.172 74.675 43.604 74.675 44.156C74.675 44.456 74.753 44.75 74.909 45.038C75.077 45.314 75.317 45.542 75.629 45.722C75.953 45.902 76.349 45.992 76.817 45.992C77.309 45.992 77.777 45.896 78.221 45.704C78.665 45.5 79.019 45.248 79.283 44.948ZM92.0218 47L90.4378 47L90.4378 41.744C90.4378 40.748 90.2818 40.022 89.9698 39.566C89.6698 39.098 89.2078 38.864 88.5838 38.864C88.1518 38.864 87.7198 38.972 87.2878 39.188C86.8678 39.404 86.4898 39.698 86.1538 40.07C85.8298 40.43 85.5958 40.85 85.4518 41.33L85.4518 47L83.8678 47L83.8678 37.604L85.3078 37.604L85.3078 39.62C85.5598 39.176 85.8838 38.792 86.2798 38.468C86.6758 38.144 87.1258 37.892 87.6298 37.712C88.1338 37.532 88.6618 37.442 89.2138 37.442C89.7538 37.442 90.2038 37.544 90.5638 37.748C90.9358 37.94 91.2238 38.216 91.4278 38.576C91.6438 38.924 91.7938 39.338 91.8778 39.818C91.9738 40.298 92.0218 40.82 92.0218 41.384L92.0218 47ZM101.109 47L97.851 42.428L96.069 44.102L96.069 47L94.485 47L94.485 33.86L96.069 33.86L96.069 42.446L100.929 37.622L102.639 37.622L98.895 41.51L102.819 47L101.109 47ZM107.854 47.18C107.146 47.18 106.498 47.054 105.91 46.802C105.334 46.538 104.83 46.184 104.398 45.74C103.978 45.284 103.648 44.762 103.408 44.174C103.18 43.586 103.066 42.962 103.066 42.302C103.066 41.414 103.27 40.604 103.678 39.872C104.086 39.14 104.65 38.552 105.37 38.108C106.102 37.664 106.936 37.442 107.872 37.442C108.82 37.442 109.642 37.67 110.338 38.126C111.046 38.57 111.592 39.158 111.976 39.89C112.372 40.61 112.57 41.39 112.57 42.23C112.57 42.35 112.564 42.47 112.552 42.59C112.552 42.698 112.546 42.782 112.534 42.842L104.74 42.842C104.788 43.454 104.956 44 105.244 44.48C105.544 44.948 105.928 45.32 106.396 45.596C106.864 45.86 107.368 45.992 107.908 45.992C108.484 45.992 109.024 45.848 109.528 45.56C110.044 45.272 110.398 44.894 110.59 44.426L111.958 44.804C111.754 45.26 111.448 45.668 111.04 46.028C110.644 46.388 110.17 46.67 109.618 46.874C109.078 47.078 108.49 47.18 107.854 47.18ZM104.686 41.744L111.094 41.744C111.046 41.132 110.872 40.592 110.572 40.124C110.272 39.656 109.888 39.29 109.42 39.026C108.952 38.762 108.436 38.63 107.872 38.63C107.32 38.63 106.81 38.762 106.342 39.026C105.874 39.29 105.49 39.656 105.19 40.124C104.902 40.592 104.734 41.132 104.686 41.744ZM118.489 47.18C117.781 47.18 117.133 47.054 116.545 46.802C115.969 46.538 115.465 46.184 115.033 45.74C114.613 45.284 114.283 44.762 114.043 44.174C113.815 43.586 113.701 42.962 113.701 42.302C113.701 41.414 113.905 40.604 114.313 39.872C114.721 39.14 115.285 38.552 116.005 38.108C116.737 37.664 117.571 37.442 118.507 37.442C119.455 37.442 120.277 37.67 120.973 38.126C121.681 38.57 122.227 39.158 122.611 39.89C123.007 40.61 123.205 41.39 123.205 42.23C123.205 42.35 123.199 42.47 123.187 42.59C123.187 42.698 123.181 42.782 123.169 42.842L115.375 42.842C115.423 43.454 115.591 44 115.879 44.48C116.179 44.948 116.563 45.32 117.031 45.596C117.499 45.86 118.003 45.992 118.543 45.992C119.119 45.992 119.659 45.848 120.163 45.56C120.679 45.272 121.033 44.894 121.225 44.426L122.593 44.804C122.389 45.26 122.083 45.668 121.675 46.028C121.279 46.388 120.805 46.67 120.253 46.874C119.713 47.078 119.125 47.18 118.489 47.18ZM115.321 41.744L121.729 41.744C121.681 41.132 121.507 40.592 121.207 40.124C120.907 39.656 120.523 39.29 120.055 39.026C119.587 38.762 119.071 38.63 118.507 38.63C117.955 38.63 117.445 38.762 116.977 39.026C116.509 39.29 116.125 39.656 115.825 40.124C115.537 40.592 115.369 41.132 115.321 41.744Z"
    fill="#022D49" />
  <path
    d="M67.436 30.18C66.728 30.18 66.08 30.054 65.492 29.802C64.916 29.538 64.412 29.184 63.98 28.74C63.56 28.284 63.23 27.762 62.99 27.174C62.762 26.586 62.648 25.962 62.648 25.302C62.648 24.414 62.852 23.604 63.26 22.872C63.668 22.14 64.232 21.552 64.952 21.108C65.684 20.664 66.518 20.442 67.454 20.442C68.402 20.442 69.224 20.67 69.92 21.126C70.628 21.57 71.174 22.158 71.558 22.89C71.954 23.61 72.152 24.39 72.152 25.23C72.152 25.35 72.146 25.47 72.134 25.59C72.134 25.698 72.128 25.782 72.116 25.842L64.322 25.842C64.37 26.454 64.538 27 64.826 27.48C65.126 27.948 65.51 28.32 65.978 28.596C66.446 28.86 66.95 28.992 67.49 28.992C68.066 28.992 68.606 28.848 69.11 28.56C69.626 28.272 69.98 27.894 70.172 27.426L71.54 27.804C71.336 28.26 71.03 28.668 70.622 29.028C70.226 29.388 69.752 29.67 69.2 29.874C68.66 30.078 68.072 30.18 67.436 30.18ZM64.268 24.744L70.676 24.744C70.628 24.132 70.454 23.592 70.154 23.124C69.854 22.656 69.47 22.29 69.002 22.026C68.534 21.762 68.018 21.63 67.454 21.63C66.902 21.63 66.392 21.762 65.924 22.026C65.456 22.29 65.072 22.656 64.772 23.124C64.484 23.592 64.316 24.132 64.268 24.744ZM73.9488 16.86L75.5328 16.86L75.5328 27.57C75.5328 28.086 75.6048 28.404 75.7488 28.524C75.8928 28.644 76.0668 28.704 76.2708 28.704C76.5228 28.704 76.7628 28.68 76.9908 28.632C77.2188 28.572 77.4108 28.512 77.5668 28.452L77.8188 29.748C77.5548 29.856 77.2428 29.946 76.8828 30.018C76.5228 30.09 76.2048 30.126 75.9288 30.126C75.3168 30.126 74.8308 29.952 74.4708 29.604C74.1228 29.256 73.9488 28.77 73.9488 28.146L73.9488 16.86Z"
    fill="#022D49" />
</svg>
