<svg width="145" height="133" viewBox="0 0 145 133" fill="none"
  xmlns="http://www.w3.org/2000/svg">
  <path d="M44.3887 23.9721L65.9685 23.6358C64.7639 25.4975 64.0792 27.7244 64.1163 30.108C64.2161 36.5119 69.4884 41.6224 75.8923 41.5226C82.2961 41.4227 87.4066 36.1505 87.3068 29.7466C87.2696 27.363 86.5158 25.1585 85.2538 23.3352L106.466 23.0047C106.903 25.0212 107.148 27.1105 107.181 29.2528C107.454 46.7363 93.3758 57.7275 75.8923 58C58.4087 58.2725 44.1403 47.7231 43.8678 30.2395C43.8344 28.0972 44.0146 26.0013 44.3887 23.9721Z" fill="#022D49"/>
  <path d="M88.2663 91.4038C88.2664 97.7243 83.1927 102.897 76.8503 102.996C70.4465 103.095 65.1742 97.985 65.0744 91.5811C65.0372 89.1975 65.722 86.9706 66.9266 85.1089L45.3468 85.4452C44.9727 87.4744 44.7925 89.5703 44.8259 91.7126C45.0984 109.196 59.4925 123.149 76.9761 122.876C94.4597 122.604 108.412 108.209 108.14 90.7258C108.106 88.5836 107.861 86.4943 107.424 84.4777L88.1645 84.7779L88.2677 91.4037L88.2663 91.4038Z" fill="#022D49"/>
  <path d="M87.2072 23.3048L107.085 22.995L108.14 90.7258L88.2627 91.0356L87.2072 23.3048Z" fill="#022D49"/>
  <path d="M87.2072 23.3048L107.085 22.995L108.14 90.7258L88.2627 91.0356L87.2072 23.3048Z" fill="#022D49"/>
  <path d="M38.3887 23.9721L59.9685 23.6358C58.7639 25.4975 58.0792 27.7244 58.1163 30.108C58.2161 36.5119 63.4884 41.6224 69.8923 41.5226C76.2961 41.4227 81.4066 36.1505 81.3068 29.7466C81.2696 27.363 80.5158 25.1585 79.2538 23.3352L100.466 23.0047C100.903 25.0212 101.148 27.1105 101.181 29.2528C101.454 46.7363 87.5016 61.1305 70.018 61.403C52.5344 61.6754 38.1403 47.7231 37.8678 30.2395C37.8344 28.0972 38.0146 26.0013 38.3887 23.9721Z" fill="white"/>
  <path d="M82.2663 91.4038C82.2664 97.7243 77.1927 102.897 70.8503 102.996C64.4465 103.095 59.1742 97.985 59.0744 91.5811C59.0372 89.1975 59.722 86.9706 60.9266 85.1089L39.3468 85.4452C38.9727 87.4744 38.7925 89.5703 38.8259 91.7126C39.0984 109.196 53.4925 123.149 70.9761 122.876C88.4597 122.604 102.412 108.209 102.14 90.7258C102.106 88.5836 101.861 86.4943 101.424 84.4777L82.1645 84.7779L82.2677 91.4037L82.2663 91.4038Z" fill="white"/>
  <path d="M81.2072 23.3048L101.085 22.995L102.14 90.7258L82.2627 91.0356L81.2072 23.3048Z" fill="white"/>
  <path d="M81.2072 23.3048L101.085 22.995L102.14 90.7258L82.2627 91.0356L81.2072 23.3048Z" fill="white"/>
  <path d="M32.3887 23.9721L53.9685 23.6358C52.7639 25.4975 52.0792 27.7244 52.1163 30.108C52.2161 36.5119 57.4884 41.6224 63.8923 41.5226C70.2961 41.4227 75.4066 36.1505 75.3068 29.7466C75.2696 27.363 74.5158 25.1585 73.2538 23.3352L94.4655 23.0047C94.9027 25.0212 95.1481 27.1105 95.1815 29.2528C95.4539 46.7363 81.5016 61.1305 64.018 61.403C46.5344 61.6754 32.1403 47.7231 31.8678 30.2395C31.8344 28.0972 32.0146 26.0013 32.3887 23.9721Z" fill="#FFB81C"/>
  <path d="M76.2663 91.4038C76.2664 97.7243 71.1927 102.897 64.8503 102.996C58.4465 103.095 53.1742 97.985 53.0744 91.5811C53.0372 89.1975 53.722 86.9706 54.9266 85.1089L33.3467 85.4452C32.9727 87.4744 32.7925 89.5703 32.8259 91.7126C33.0984 109.196 47.4925 123.149 64.9761 122.876C82.4597 122.604 96.412 108.209 96.1395 90.7258C96.1061 88.5836 95.8607 86.4943 95.4236 84.4777L76.1645 84.7779L76.2677 91.4037L76.2663 91.4038Z" fill="#FFB81C"/>
  <path d="M75.2071 23.3048L95.0847 22.995L96.1403 90.7258L76.2627 91.0356L75.2071 23.3048Z" fill="#FFB81C"/>
  <path d="M75.2071 23.3048L95.0847 22.995L96.1403 90.7258L76.2627 91.0356L75.2071 23.3048Z" fill="#FFB81C"/>
  <path d="M119.832 23.96C120.899 23.96 121.816 24.2587 122.584 24.856C123.373 25.4747 123.981 26.3173 124.408 27.384C124.835 28.4507 125.048 29.688 125.048 31.096C125.048 31.8427 124.984 32.632 124.856 33.464C124.749 34.296 124.579 35.032 124.344 35.672L125.56 35.672C126.84 35.672 127.843 35.288 128.568 34.52C129.315 33.752 129.688 32.664 129.688 31.256C129.688 30.3387 129.517 29.4533 129.176 28.6C128.856 27.768 128.387 26.8827 127.768 25.944L129.752 24.92C130.499 26.008 131.053 27.096 131.416 28.184C131.8 29.272 131.992 30.4027 131.992 31.576C131.992 33.7093 131.395 35.3947 130.2 36.632C129.027 37.8693 127.384 38.488 125.272 38.488L118.2 38.488C117.859 38.488 117.603 38.552 117.432 38.68C117.283 38.8293 117.197 39.064 117.176 39.384L115 39.384C114.957 39.1067 114.925 38.8613 114.904 38.648C114.883 38.456 114.872 38.296 114.872 38.168C114.872 37.5067 115.053 37.0053 115.416 36.664C115.779 36.344 116.163 36.1627 116.568 36.12L117.624 36.056C116.685 35.3307 115.96 34.3813 115.448 33.208C114.936 32.0347 114.68 30.872 114.68 29.72C114.68 28.6107 114.904 27.6187 115.352 26.744C115.821 25.8693 116.44 25.1867 117.208 24.696C117.997 24.2053 118.872 23.96 119.832 23.96ZM118.648 34.84C118.947 35.096 119.245 35.2987 119.544 35.448C119.864 35.5973 120.131 35.672 120.344 35.672L122.424 35.672C122.68 35.0107 122.872 34.3173 123 33.592C123.149 32.8667 123.224 32.152 123.224 31.448C123.224 30.0187 122.936 28.856 122.36 27.96C121.805 27.0853 121.037 26.648 120.056 26.648C119.523 26.648 119 26.7867 118.488 27.064C117.997 27.3627 117.592 27.7893 117.272 28.344C116.952 28.92 116.792 29.624 116.792 30.456C116.792 31.3307 116.963 32.1627 117.304 32.952C117.667 33.7413 118.115 34.3707 118.648 34.84ZM115 57.4868L115 54.6707L124.344 54.6707C126.115 54.6707 127.405 54.3934 128.216 53.8388C129.048 53.3054 129.464 52.4841 129.464 51.3747C129.464 50.6067 129.272 49.8387 128.888 49.0707C128.504 48.3241 127.981 47.6521 127.32 47.0547C126.68 46.4787 125.933 46.0627 125.08 45.8067L115 45.8067L115 42.9907L131.704 42.9907L131.704 45.5507L128.12 45.5507C128.909 45.9987 129.592 46.5747 130.168 47.2787C130.744 47.9827 131.192 48.7827 131.512 49.6787C131.832 50.5748 131.992 51.5134 131.992 52.4948C131.992 53.4548 131.811 54.2547 131.448 54.8948C131.107 55.5561 130.616 56.0681 129.976 56.4308C129.357 56.8147 128.621 57.0814 127.768 57.2308C126.915 57.4014 125.987 57.4868 124.984 57.4868L115 57.4868ZM115 73.6417L123.128 67.8497L120.152 64.6817L115 64.6817L115 61.8657L138.36 61.8657L138.36 64.6818L123.096 64.6817L131.672 73.3218L131.672 76.3618L124.76 69.7057L115 76.6817L115 73.6417ZM114.68 85.6327C114.68 84.3741 114.904 83.2221 115.352 82.1767C115.821 81.1527 116.451 80.2567 117.24 79.4887C118.051 78.7421 118.979 78.1554 120.024 77.7287C121.069 77.3234 122.179 77.1207 123.352 77.1207C124.931 77.1207 126.371 77.4834 127.672 78.2087C128.973 78.9341 130.019 79.9367 130.808 81.2167C131.597 82.5181 131.992 84.0007 131.992 85.6647C131.992 87.3501 131.587 88.8114 130.776 90.0488C129.987 91.3074 128.941 92.2781 127.64 92.9607C126.36 93.6647 124.973 94.0167 123.48 94.0167C123.267 94.0167 123.053 94.0061 122.84 93.9847C122.648 93.9847 122.499 93.9741 122.392 93.9528L122.392 80.0967C121.304 80.1821 120.333 80.4807 119.48 80.9927C118.648 81.5261 117.987 82.2087 117.496 83.0407C117.027 83.8727 116.792 84.7687 116.792 85.7287C116.792 86.7527 117.048 87.7127 117.56 88.6087C118.072 89.5261 118.744 90.1554 119.576 90.4967L118.904 92.9287C118.093 92.5661 117.368 92.0221 116.728 91.2967C116.088 90.5927 115.587 89.7501 115.224 88.7687C114.861 87.8087 114.68 86.7634 114.68 85.6327ZM124.344 80.0007L124.344 91.3927C125.432 91.3074 126.392 90.9981 127.224 90.4647C128.056 89.9314 128.707 89.2488 129.176 88.4168C129.645 87.5848 129.88 86.6674 129.88 85.6647C129.88 84.6834 129.645 83.7767 129.176 82.9447C128.707 82.1127 128.056 81.4301 127.224 80.8967C126.392 80.3847 125.432 80.0861 124.344 80.0007ZM114.68 104.539C114.68 103.28 114.904 102.128 115.352 101.083C115.821 100.059 116.451 99.163 117.24 98.395C118.051 97.6483 118.979 97.0617 120.024 96.635C121.069 96.2297 122.179 96.027 123.352 96.027C124.931 96.027 126.371 96.3897 127.672 97.115C128.973 97.8403 130.019 98.843 130.808 100.123C131.597 101.424 131.992 102.907 131.992 104.571C131.992 106.256 131.587 107.718 130.776 108.955C129.987 110.214 128.941 111.184 127.64 111.867C126.36 112.571 124.973 112.923 123.48 112.923C123.267 112.923 123.053 112.912 122.84 112.891C122.648 112.891 122.499 112.88 122.392 112.859L122.392 99.003C121.304 99.0883 120.333 99.387 119.48 99.899C118.648 100.432 117.987 101.115 117.496 101.947C117.027 102.779 116.792 103.675 116.792 104.635C116.792 105.659 117.048 106.619 117.56 107.515C118.072 108.432 118.744 109.062 119.576 109.403L118.904 111.835C118.093 111.472 117.368 110.928 116.728 110.203C116.088 109.499 115.587 108.656 115.224 107.675C114.861 106.715 114.68 105.67 114.68 104.539ZM124.344 98.907L124.344 110.299C125.432 110.214 126.392 109.904 127.224 109.371C128.056 108.838 128.707 108.155 129.176 107.323C129.645 106.491 129.88 105.574 129.88 104.571C129.88 103.59 129.645 102.683 129.176 101.851C128.707 101.019 128.056 100.336 127.224 99.803C126.392 99.291 125.432 98.9923 124.344 98.907Z" fill="#0A3161"/>
</svg>
