<svg width="136" height="133" viewBox="0 0 136 133" fill="none" xmlns="http://www.w3.org/2000/svg">
<path d="M44.3887 23.9721L65.9685 23.6358C64.7639 25.4975 64.0792 27.7244 64.1163 30.108C64.2161 36.5119 69.4884 41.6224 75.8923 41.5226C82.2961 41.4227 87.4066 36.1505 87.3068 29.7466C87.2696 27.363 86.5158 25.1585 85.2538 23.3352L106.466 23.0047C106.903 25.0212 107.148 27.1105 107.181 29.2528C107.454 46.7363 93.3758 57.7275 75.8923 58C58.4087 58.2725 44.1403 47.7231 43.8678 30.2395C43.8344 28.0972 44.0146 26.0013 44.3887 23.9721Z" fill="#022D49"/>
<path d="M88.2663 91.4038C88.2664 97.7243 83.1927 102.897 76.8503 102.996C70.4465 103.095 65.1742 97.985 65.0744 91.5811C65.0372 89.1975 65.722 86.9706 66.9266 85.1089L45.3468 85.4452C44.9727 87.4744 44.7925 89.5703 44.8259 91.7126C45.0984 109.196 59.4925 123.149 76.9761 122.876C94.4597 122.604 108.412 108.209 108.14 90.7258C108.106 88.5836 107.861 86.4943 107.424 84.4777L88.1645 84.7779L88.2677 91.4037L88.2663 91.4038Z" fill="#022D49"/>
<path d="M87.2072 23.3048L107.085 22.995L108.14 90.7258L88.2627 91.0356L87.2072 23.3048Z" fill="#022D49"/>
<path d="M87.2072 23.3048L107.085 22.995L108.14 90.7258L88.2627 91.0356L87.2072 23.3048Z" fill="#022D49"/>
<path d="M38.3887 23.9721L59.9685 23.6358C58.7639 25.4975 58.0792 27.7244 58.1163 30.108C58.2161 36.5119 63.4884 41.6224 69.8923 41.5226C76.2961 41.4227 81.4066 36.1505 81.3068 29.7466C81.2696 27.363 80.5158 25.1585 79.2538 23.3352L100.466 23.0047C100.903 25.0212 101.148 27.1105 101.181 29.2528C101.454 46.7363 87.5016 61.1305 70.018 61.403C52.5344 61.6754 38.1403 47.7231 37.8678 30.2395C37.8344 28.0972 38.0146 26.0013 38.3887 23.9721Z" fill="white"/>
<path d="M82.2663 91.4038C82.2664 97.7243 77.1927 102.897 70.8503 102.996C64.4465 103.095 59.1742 97.985 59.0744 91.5811C59.0372 89.1975 59.722 86.9706 60.9266 85.1089L39.3468 85.4452C38.9727 87.4744 38.7925 89.5703 38.8259 91.7126C39.0984 109.196 53.4925 123.149 70.9761 122.876C88.4597 122.604 102.412 108.209 102.14 90.7258C102.106 88.5836 101.861 86.4943 101.424 84.4777L82.1645 84.7779L82.2677 91.4037L82.2663 91.4038Z" fill="white"/>
<path d="M81.2072 23.3048L101.085 22.995L102.14 90.7258L82.2627 91.0356L81.2072 23.3048Z" fill="white"/>
<path d="M81.2072 23.3048L101.085 22.995L102.14 90.7258L82.2627 91.0356L81.2072 23.3048Z" fill="white"/>
<path d="M32.3887 23.9721L53.9685 23.6358C52.7639 25.4975 52.0792 27.7244 52.1163 30.108C52.2161 36.5119 57.4884 41.6224 63.8923 41.5226C70.2961 41.4227 75.4066 36.1505 75.3068 29.7466C75.2696 27.363 74.5158 25.1585 73.2538 23.3352L94.4655 23.0047C94.9027 25.0212 95.1481 27.1105 95.1815 29.2528C95.4539 46.7363 81.5016 61.1305 64.018 61.403C46.5344 61.6754 32.1403 47.7231 31.8678 30.2395C31.8344 28.0972 32.0146 26.0013 32.3887 23.9721Z" fill="#FFB81C"/>
<path d="M76.2663 91.4038C76.2664 97.7243 71.1927 102.897 64.8503 102.996C58.4465 103.095 53.1742 97.985 53.0744 91.5811C53.0372 89.1975 53.722 86.9706 54.9266 85.1089L33.3467 85.4452C32.9727 87.4744 32.7925 89.5703 32.8259 91.7126C33.0984 109.196 47.4925 123.149 64.9761 122.876C82.4597 122.604 96.412 108.209 96.1395 90.7258C96.1061 88.5836 95.8607 86.4943 95.4236 84.4777L76.1645 84.7779L76.2677 91.4037L76.2663 91.4038Z" fill="#FFB81C"/>
<path d="M75.2071 23.3048L95.0847 22.995L96.1403 90.7258L76.2627 91.0356L75.2071 23.3048Z" fill="#FFB81C"/>
<path d="M75.2071 23.3048L95.0847 22.995L96.1403 90.7258L76.2627 91.0356L75.2071 23.3048Z" fill="#FFB81C"/>
</svg>
